<?xml version="1.0" encoding="UTF-8" standalone="no"?>
<!-- Uploaded to: SVG Repo, www.svgrepo.com, Generator: SVG Repo Mixer Tools -->

<svg
   xmlns:dc="http://purl.org/dc/elements/1.1/"
   xmlns:cc="http://creativecommons.org/ns#"
   xmlns:rdf="http://www.w3.org/1999/02/22-rdf-syntax-ns#"
   xmlns:svg="http://www.w3.org/2000/svg"
   xmlns="http://www.w3.org/2000/svg"
   xmlns:sodipodi="http://sodipodi.sourceforge.net/DTD/sodipodi-0.dtd"
   xmlns:inkscape="http://www.inkscape.org/namespaces/inkscape"
   height="100mm"
   width="100mm"
   version="1.1"
   id="Capa_1"
   viewBox="0 0 172.86236 172.86236"
   xml:space="preserve"
   sodipodi:docname="wifi-logo-svgrepo-com.svg"
   style="fill:#000000"
   inkscape:version="0.92.5 (2060ec1f9f, 2020-04-08)"><metadata
   id="metadata17"><rdf:RDF><cc:Work
       rdf:about=""><dc:format>image/svg+xml</dc:format><dc:type
         rdf:resource="http://purl.org/dc/dcmitype/StillImage" /><dc:title></dc:title></cc:Work></rdf:RDF></metadata><defs
   id="defs15" /><sodipodi:namedview
   pagecolor="#ffffff"
   bordercolor="#666666"
   borderopacity="1"
   objecttolerance="10"
   gridtolerance="10"
   guidetolerance="10"
   inkscape:pageopacity="0"
   inkscape:pageshadow="2"
   inkscape:window-width="2560"
   inkscape:window-height="1416"
   id="namedview13"
   showgrid="false"
   units="mm"
   inkscape:snap-bbox="true"
   inkscape:bbox-nodes="true"
   inkscape:bbox-paths="true"
   inkscape:snap-bbox-edge-midpoints="true"
   inkscape:snap-bbox-midpoints="true"
   inkscape:object-paths="true"
   inkscape:snap-intersection-paths="true"
   inkscape:snap-smooth-nodes="true"
   inkscape:snap-midpoints="true"
   inkscape:snap-object-midpoints="true"
   inkscape:snap-center="true"
   inkscape:snap-text-baseline="true"
   inkscape:snap-page="true"
   inkscape:snap-nodes="false"
   inkscape:zoom="1.668772"
   inkscape:cx="366.25747"
   inkscape:cy="261.23724"
   inkscape:window-x="0"
   inkscape:window-y="0"
   inkscape:window-maximized="1"
   inkscape:current-layer="Capa_1" />
<path
   style="fill:#030000;fill-opacity:1;stroke-width:0.99999994"
   d="M 0 0 L 0 377.95312 L 377.95312 377.95312 L 377.95312 0 L 0 0 z M 188.97656 44.361328 C 256.05143 44.361328 318.87952 70.734624 365.88867 118.62305 C 372.99247 125.86128 372.88568 137.487 365.64844 144.5918 C 358.4112 151.6956 346.78353 151.58979 339.67773 144.35156 C 299.63197 103.55599 246.11267 81.087891 188.97656 81.087891 C 131.84344 81.087891 78.323182 103.55595 38.273438 144.35352 C 34.678718 148.01495 29.92375 149.85156 25.167969 149.85156 C 20.524707 149.85256 15.879491 148.10283 12.304688 144.59375 C 5.0674536 137.48895 4.9596562 125.86323 12.064453 118.625 C 59.075603 70.734585 121.90469 44.361328 188.97656 44.361328 z M 188.97656 113.22656 C 239.69795 113.22656 288.24984 134.88111 322.18359 172.64258 C 328.96177 180.18551 328.34276 191.79699 320.79883 198.57617 C 313.25588 205.35436 301.64442 204.73534 294.86523 197.19141 C 267.88792 167.17202 229.29218 149.95312 188.97656 149.95312 C 148.66095 149.95312 110.06812 167.17103 83.091797 197.19141 C 79.466209 201.22725 74.455399 203.28026 69.425781 203.28125 C 65.05337 203.28125 60.66629 201.72877 57.158203 198.57617 C 49.613277 191.79699 48.995251 180.18651 55.773438 172.64258 C 89.70519 134.8821 138.25419 113.22656 188.97656 113.22656 z M 188.97656 182.08984 C 224.48561 182.08984 258.02238 199.359 278.68555 228.29102 C 284.58047 236.54392 282.66892 248.01326 274.41602 253.9082 C 266.1621 259.80415 254.69279 257.88961 248.79883 249.63867 C 235.01343 230.33873 212.64897 218.81641 188.97461 218.81641 C 165.30224 218.81641 142.93973 230.33969 129.15234 249.64062 C 125.56957 254.6573 119.923 257.33203 114.19336 257.33203 C 110.49906 257.33203 106.7704 256.21938 103.53516 253.9082 C 95.283229 248.01326 93.371641 236.54394 99.267578 228.29102 C 119.93273 199.361 153.46951 182.08984 188.97656 182.08984 z M 188.97461 250.95508 A 41.318352 41.318352 0 0 1 230.29297 292.27344 A 41.318352 41.318352 0 0 1 188.97461 333.5918 A 41.318352 41.318352 0 0 1 147.65625 292.27344 A 41.318352 41.318352 0 0 1 188.97461 250.95508 z "
   id="rect3730"
   transform="scale(0.45736499)" />
</svg>